<svg version="1.1" id="Слой_1" xmlns="http://www.w3.org/2000/svg" x="0" y="0" viewBox="0 0 29.7 29.7" xml:space="preserve"><style>.st0{fill:#00b74f}</style><path class="st0" d="M14.85 10.86a3.98 3.98 0 00-3.98 3.99c0 2.2 1.79 3.99 3.98 3.99 2.2 0 3.99-1.78 3.99-3.99 0-2.2-1.79-3.99-3.99-3.99zm0 6.6c-1.44 0-2.61-1.17-2.61-2.61s1.16-2.61 2.61-2.61c1.43 0 2.61 1.17 2.61 2.61s-1.16 2.61-2.61 2.61zm4.39-8.05c-.51 0-.92.41-.92.92s.41.92.92.92.92-.41.92-.92c0-.52-.41-.92-.92-.92z"/><path class="st0" d="M14.85 0C6.65 0 0 6.65 0 14.85S6.65 29.7 14.85 29.7 29.7 23.05 29.7 14.85 23.05 0 14.85 0zm7.67 18.11c0 2.42-1.98 4.4-4.42 4.4h-6.5c-2.44 0-4.42-1.98-4.42-4.39v-6.55c0-2.42 1.98-4.4 4.42-4.4h6.5c2.44 0 4.42 1.98 4.42 4.4v6.54z"/></svg>